<svg width="20" height="20" viewBox="0 0 20 20" fill="none" xmlns="http://www.w3.org/2000/svg">
<path d="M8.9948 3C9.02944 2.91144 8.91895 3.05333 8.9948 3C9.07065 2.94668 8.90346 3 8.9948 3C9.08614 3 9.91895 2.94668 9.9948 3C10.0707 3.05333 9.96015 2.91144 9.9948 3L11.9948 8C12.0274 8.08211 11.9261 7.94775 11.9948 8C12.0634 8.05226 11.9102 7.99292 11.9948 8H16.9948C17.4036 8.03434 17.3061 8.72099 16.9948 9L12.9948 12C12.9305 12.0577 13.0211 12.9157 12.9948 13C12.9685 13.0844 12.9754 12.9136 12.9948 13L13.9948 17C14.016 17.0928 14.0263 17.9106 13.9948 18C13.9633 18.0895 14.0684 17.944 13.9948 18C13.9212 18.056 14.0857 17.9962 13.9948 18C13.9039 18.0038 14.0724 18.0498 13.9948 18L9.9948 15C9.92249 14.9538 9.07947 15 8.9948 15C8.91012 15 9.0671 14.9538 8.9948 15L4.9948 18C4.91719 18.0498 5.08572 18.0038 4.9948 18C4.90387 17.9962 5.06843 18.056 4.9948 18C4.92117 17.944 5.02634 18.0895 4.9948 18C4.96325 17.9106 4.97364 17.0928 4.9948 17L5.9948 13C6.01432 12.9136 6.0211 13.0844 5.9948 13C5.96849 12.9156 6.05921 12.0576 5.9948 12L1.9948 9C1.92584 8.93786 2.01934 9.09179 1.9948 9C1.97026 8.90822 1.96669 9.09066 1.9948 9C2.0229 8.90935 1.92347 8.05914 1.9948 8C2.06613 7.94087 1.90415 8.0078 1.9948 8H6.9948C7.07938 7.99292 6.92615 8.05226 6.9948 8C7.06345 7.94775 6.96221 8.08211 6.9948 8L8.9948 3Z" stroke="#171923" stroke-width="1.5" stroke-linecap="round" stroke-linejoin="round"/>
</svg>
