<svg width="28" height="24" viewBox="0 0 28 24" fill="none" xmlns="http://www.w3.org/2000/svg">
<path d="M14 2C18.515 2 22.1667 5.13 22.1667 9C22.1667 14.25 14 22 14 22C14 22 5.83332 14.25 5.83332 9C5.83332 5.13 9.48499 2 14 2ZM19.8333 9C19.8333 6.24 17.22 4 14 4C10.78 4 8.16666 6.24 8.16666 9C8.16666 11.88 11.5267 16.19 14 18.88C16.4267 16.21 19.8333 11.85 19.8333 9Z" fill="#F7FAFC"/>
<path d="M14 11.5C12.3892 11.5 11.0833 10.3807 11.0833 9C11.0833 7.61929 12.3892 6.5 14 6.5C15.6108 6.5 16.9167 7.61929 16.9167 9C16.9167 10.3807 15.6108 11.5 14 11.5Z" fill="#F7FAFC"/>
</svg>
