<svg width="32" height="32" viewBox="0 0 32 32" fill="none" xmlns="http://www.w3.org/2000/svg">
<circle cx="16" cy="16" r="15.9" stroke="#F7FAFC" stroke-width="0.2"/>
<path d="M18.6 17.6V20H12.2V14.4C12.2 12.632 13.632 11.2 15.4 11.2C16.08 11.2 16.712 11.408 17.224 11.776L18.368 10.632C17.847 10.2195 17.2444 9.9223 16.6 9.76V9.2C16.6 8.536 16.064 8 15.4 8C14.736 8 14.2 8.536 14.2 9.2V9.76C12.128 10.288 10.6 12.168 10.6 14.4V20H9V21.6H21.8V20H20.2V17.6H18.6ZM15.4 24C16.28 24 17 23.28 17 22.4H13.8C13.8 23.28 14.52 24 15.4 24ZM25 12.8H22.6V10.4H21V12.8H18.6V14.4H21V16.8H22.6V14.4H25V12.8Z" fill="#F7FAFC"/>
</svg>
