<svg width="32" height="32" viewBox="0 0 32 32" fill="none" xmlns="http://www.w3.org/2000/svg">
<circle cx="16" cy="16" r="15.9" stroke="#F7FAFC" stroke-width="0.2"/>
<path d="M24 16.8876V15.0551L21.7829 14.3221L21.2686 13.0737L22.2743 10.9664L20.9829 9.67215L18.9143 10.7144L17.6686 10.199L16.88 8H15.0514L14.3314 10.2219L13.0629 10.7373L10.96 9.72942L9.66857 11.0236L10.7086 13.0966L10.1943 14.345L8 15.1238V16.9449L10.2171 17.6779L10.7314 18.9263L9.72571 21.0336L11.0171 22.3278L13.0857 21.2856L14.3314 21.801L15.12 24H16.9371L17.6571 21.7781L18.9257 21.2627L21.0286 22.2706L22.32 20.9764L21.2686 18.9034L21.8057 17.655L24 16.8647V16.8876ZM16 19.4417C14.1029 19.4417 12.5714 17.9069 12.5714 16.0057C12.5714 14.1045 14.1029 12.5698 16 12.5698C17.8971 12.5698 19.4286 14.1045 19.4286 16.0057C19.4286 17.9069 17.8971 19.4417 16 19.4417Z" fill="#F7FAFC"/>
</svg>
